<svg xmlns="http://www.w3.org/2000/svg" viewBox="0 0 256 256"><path d="M176 72a16 16 0 1 1-16-16 16 16 0 0 1 16 16m68 8a12 12 0 0 1-5.344 9.984L220 102.422V120a108.12 108.12 0 0 1-108 108H12a12 12 0 0 1-9.523-19.301L92 91.929V76a64.01 64.01 0 0 1 124.575-20.706l22.081 14.722A12 12 0 0 1 244 80m-33.633 0-10.69-7.128a12 12 0 0 1-4.958-6.967A40.008 40.008 0 0 0 116 76v20a12 12 0 0 1-2.477 7.301L36.321 204H112a84.095 84.095 0 0 0 84-84V96a12 12 0 0 1 5.344-9.984Zm-81.733 46.477a12 12 0 0 0-16.824 2.222l-30.666 40a12 12 0 1 0 19.046 14.602l30.666-40a12 12 0 0 0-2.222-16.824"/></svg>