<svg xmlns="http://www.w3.org/2000/svg" xml:space="preserve" width="800" height="800" viewBox="0 0 327.638 327.638"><path d="M327.294 61.106a5.87 5.87 0 0 0-5.512-3.883H175.641a5.86 5.86 0 0 0-3.974 1.553l-49.009 45.261-60.953-60.954c-.066-.062-.152-.1-.217-.163-.211-.194-.452-.352-.689-.518-.255-.168-.495-.331-.764-.454-.08-.037-.14-.101-.223-.135-.169-.071-.343-.077-.515-.128a5 5 0 0 0-.895-.223c-.28-.043-.552-.043-.832-.043s-.549 0-.832.043a6 6 0 0 0-.9.229c-.163.052-.34.058-.503.129-.083.034-.14.092-.217.135a5.6 5.6 0 0 0-.778.469c-.234.157-.469.314-.68.503-.071.063-.151.1-.223.163L1.717 94.809a5.855 5.855 0 0 0 4.139 9.995H51.72v67.335c0 .017.006.028.006.04s-.006.023-.006.034c0 .046.029.092.035.144a5.8 5.8 0 0 0 .446 1.955c.077.178.157.349.246.521.3.56.669 1.075 1.129 1.509.06.058.083.138.143.195l63.427 55.625c.049.039.112.057.166.103.274.897.698 1.749 1.381 2.436l49.798 49.804a5.9 5.9 0 0 0 4.144 1.716 5.85 5.85 0 0 0 5.854-5.855v-92.174L325.504 67.61a5.87 5.87 0 0 0 1.79-6.504M63.42 157.998v-96.64l48.323 48.323zM19.98 93.087l31.729-31.729v31.729zm146.784 173.142-35.4-35.406 35.4-31.306zm-45.646-46.145-54.805-48.065L177.934 68.935h127.472z" style="fill:#fff"/></svg>